<svg width="38" height="37" viewBox="0 0 38 37" fill="none" xmlns="http://www.w3.org/2000/svg">
<path d="M6.6143 35.4998C4.12745 35.4998 2.11137 33.6488 2.11137 31.3633V14.7376C2.11137 13.4815 2.73414 12.2915 3.80023 11.5077L16.1859 2.40717C16.9773 1.82084 17.9725 1.5 19 1.5C20.0275 1.5 21.0227 1.82084 21.8141 2.40717L34.1977 11.5077C35.2659 12.2915 35.8886 13.4815 35.8886 14.7376V31.3633C35.8886 33.6488 33.8726 35.4998 31.3857 35.4998H6.6143Z" stroke="#27242B" stroke-width="2.5" stroke-linecap="round" stroke-linejoin="round"/>
<path d="M13.7223 35.4999V25.1112C13.7223 24.1093 14.1671 23.1484 14.9589 22.44C15.7507 21.7315 16.8247 21.3335 17.9445 21.3335H20.0555C21.1753 21.3335 22.2492 21.7315 23.041 22.44C23.8329 23.1484 24.2777 24.1093 24.2777 25.1112V35.4999" stroke="#27242B" stroke-width="2.5" stroke-linecap="round" stroke-linejoin="round"/>
</svg>
