<svg width="22" height="19" viewBox="0 0 22 19" fill="none" xmlns="http://www.w3.org/2000/svg">
<path fill-rule="evenodd" clip-rule="evenodd" d="M0.5 2C0.5 1.60218 0.658035 1.22064 0.93934 0.93934C1.22064 0.658036 1.60218 0.5 2 0.5H20C20.3978 0.5 20.7794 0.658036 21.0607 0.93934C21.342 1.22064 21.5 1.60218 21.5 2C21.5 2.39782 21.342 2.77936 21.0607 3.06066C20.7794 3.34196 20.3978 3.5 20 3.5H2C1.60218 3.5 1.22064 3.34196 0.93934 3.06066C0.658035 2.77936 0.5 2.39782 0.5 2ZM5 9.5C5 9.10217 5.15804 8.72064 5.43934 8.43934C5.72064 8.15804 6.10218 8 6.5 8H20C20.3978 8 20.7794 8.15804 21.0607 8.43934C21.342 8.72064 21.5 9.10217 21.5 9.5C21.5 9.89783 21.342 10.2794 21.0607 10.5607C20.7794 10.842 20.3978 11 20 11H6.5C6.10218 11 5.72064 10.842 5.43934 10.5607C5.15804 10.2794 5 9.89783 5 9.5ZM0.5 17C0.5 16.6022 0.658035 16.2206 0.93934 15.9393C1.22064 15.658 1.60218 15.5 2 15.5H20C20.3978 15.5 20.7794 15.658 21.0607 15.9393C21.342 16.2206 21.5 16.6022 21.5 17C21.5 17.3978 21.342 17.7794 21.0607 18.0607C20.7794 18.342 20.3978 18.5 20 18.5H2C1.60218 18.5 1.22064 18.342 0.93934 18.0607C0.658035 17.7794 0.5 17.3978 0.5 17Z" fill="#27242B"/>
</svg>
