<svg width="38" height="39" viewBox="0 0 38 39" fill="none" xmlns="http://www.w3.org/2000/svg">
<path d="M22.8517 3.14634C22.9033 2.95344 22.9924 2.77259 23.1139 2.61413C23.2354 2.45567 23.387 2.32271 23.5599 2.22284C23.7328 2.12297 23.9237 2.05815 24.1217 2.03209C24.3197 2.00602 24.5208 2.01922 24.7137 2.07093C27.5316 2.80614 30.1025 4.27922 32.1617 6.33844C34.2209 8.39767 35.694 10.9686 36.4292 13.7864C36.4809 13.9793 36.4941 14.1805 36.4681 14.3785C36.442 14.5765 36.3772 14.7674 36.2773 14.9403C36.1774 15.1132 36.0445 15.2647 35.886 15.3863C35.7276 15.5078 35.5467 15.5969 35.3538 15.6485C35.2254 15.6823 35.0933 15.6995 34.9605 15.6998C34.6256 15.6998 34.3 15.5891 34.0344 15.385C33.7688 15.1809 33.578 14.8948 33.4918 14.5712C32.8922 12.2708 31.6899 10.1721 30.009 8.49114C28.3281 6.81022 26.2293 5.60798 23.929 5.00836C23.7359 4.95697 23.5549 4.86801 23.3962 4.74659C23.2375 4.62516 23.1044 4.47364 23.0043 4.3007C22.9043 4.12776 22.8393 3.93679 22.8131 3.73872C22.7869 3.54064 22.8 3.33934 22.8517 3.14634ZM22.409 11.0884C25.0291 11.7876 26.7125 13.471 27.4117 16.0912C27.498 16.4148 27.6887 16.7009 27.9543 16.905C28.2199 17.1091 28.5455 17.2198 28.8805 17.2198C29.0132 17.2195 29.1454 17.2023 29.2738 17.1685C29.4667 17.1169 29.6475 17.0278 29.806 16.9063C29.9644 16.7848 30.0974 16.6332 30.1973 16.4603C30.2971 16.2874 30.3619 16.0965 30.388 15.8985C30.4141 15.7005 30.4009 15.4993 30.3492 15.3065C29.3764 11.666 26.8341 9.1238 23.1937 8.15099C22.8042 8.04693 22.3893 8.10187 22.0402 8.30373C21.6912 8.50559 21.4367 8.83782 21.3326 9.22735C21.2286 9.61688 21.2835 10.0318 21.4854 10.3808C21.6872 10.7298 22.0195 10.9844 22.409 11.0884ZM37.9777 29.2051C37.639 31.7797 36.3746 34.1429 34.4207 35.8534C32.4669 37.5639 29.9572 38.5046 27.3604 38.5C12.2743 38.5 0.00016978 26.2259 0.00016978 11.1397C-0.00448523 8.54295 0.936284 6.03327 2.64677 4.07943C4.35725 2.12559 6.72048 0.861202 9.29506 0.522416C9.94611 0.442921 10.6054 0.576114 11.1745 0.902113C11.7437 1.22811 12.1921 1.72943 12.4529 2.33123L16.4657 11.2898V11.3126C16.6654 11.7733 16.7479 12.2762 16.7058 12.7765C16.6636 13.2768 16.4983 13.7589 16.2244 14.1797C16.1902 14.231 16.1541 14.2785 16.1161 14.326L12.1603 19.0153C13.5834 21.9071 16.6082 24.9054 19.5381 26.3323L24.1627 22.3973C24.2081 22.3591 24.2557 22.3236 24.3052 22.2909C24.7257 22.0105 25.2094 21.8393 25.7127 21.7929C26.2159 21.7464 26.7228 21.8262 27.1875 22.0249L27.2122 22.0363L36.1632 26.0473C36.7661 26.3071 37.2686 26.7552 37.5957 27.3244C37.9228 27.8936 38.0568 28.5534 37.9777 29.2051ZM34.9605 28.8251H34.9396L26.0095 24.8256L21.383 28.7605C21.3382 28.7986 21.2913 28.8342 21.2424 28.8669C20.8049 29.1587 20.2992 29.3321 19.7747 29.3701C19.2502 29.4081 18.7248 29.3093 18.2498 29.0835C14.6911 27.364 11.1438 23.8432 9.42236 20.3225C9.19441 19.851 9.09213 19.3287 9.12542 18.806C9.1587 18.2834 9.32644 17.7782 9.61236 17.3395C9.64451 17.2879 9.68072 17.239 9.72066 17.1932L13.6803 12.4982L9.69026 3.56815C9.6895 3.56056 9.6895 3.55293 9.69026 3.54535C7.84773 3.7857 6.156 4.68947 4.93188 6.08741C3.70776 7.48535 3.03522 9.28158 3.0402 11.1397C3.04724 17.5877 5.6118 23.7695 10.1712 28.3289C14.7306 32.8883 20.9125 35.4529 27.3604 35.46C29.2174 35.4663 31.0132 34.7961 32.4119 33.5747C33.8107 32.3532 34.7167 30.6641 34.9605 28.8232V28.8251Z" fill="#27242B"/>
</svg>
