<svg width="38" height="39" viewBox="0 0 38 39" fill="none" xmlns="http://www.w3.org/2000/svg">
<path d="M37.2108 1.29437C36.8695 0.953276 36.4434 0.709338 35.9765 0.587681C35.5095 0.466025 35.0186 0.471049 34.5542 0.602235H34.5288L1.96796 10.4821C1.43935 10.6345 0.969513 10.9438 0.620706 11.3692C0.271899 11.7946 0.0605906 12.316 0.0147836 12.8642C-0.0310235 13.4124 0.090833 13.9616 0.364205 14.439C0.637577 14.9164 1.04956 15.2994 1.54555 15.5374L15.9514 22.5537L22.9576 36.9511C23.1755 37.4162 23.522 37.8091 23.956 38.0836C24.3901 38.358 24.8937 38.5025 25.4072 38.5C25.4852 38.5 25.5633 38.4966 25.6413 38.4898C26.1891 38.4454 26.7102 38.2346 27.1347 37.8856C27.5592 37.5366 27.8668 37.0661 28.0163 36.5372L37.8894 3.97639V3.95094C38.0223 3.48776 38.0295 2.99755 37.9102 2.53067C37.7909 2.0638 37.5496 1.63708 37.2108 1.29437ZM25.4225 35.7603L25.414 35.784V35.7721L18.6182 21.8107L26.7609 13.668C27.0047 13.4114 27.1386 13.0697 27.1341 12.7158C27.1295 12.362 26.9869 12.0238 26.7367 11.7736C26.4864 11.5233 26.1483 11.3807 25.7944 11.3762C25.4405 11.3717 25.0989 11.5056 24.8423 11.7493L16.6996 19.8921L2.73304 13.0963H2.72116H2.74491L35.2905 3.2147L25.4225 35.7603Z" fill="#27242B"/>
</svg>
